<svg xmlns="http://www.w3.org/2000/svg" width="1600" height="278"><path fill-rule="evenodd" d="m538.1 57.2-57.3 220.5-220.7-57.2L317.4 0zM149.6 24.5q38.8 0 61.1 19.6 22.2 19.5 22.2 48.9 0 32.3-26.1 50.6 37 42.3 44.2 109.6H145.8q-2.8-43.3-13-64-10.1-20.7-31.5-20.7v84.7H0V24.5zm554.5 0q44 0 66.3 17.2 22.5 17.1 22.5 46.6 0 32.2-29.8 49.2 17.7 9.3 26.8 21.7 9.2 12.3 9.2 30.7 0 28.8-20.7 46.1-20.6 17.2-57.8 17.2H560.8V24.5zm227 0v171.3h88.9v57.4H829.7V24.5zm486.7 0 33.8 42.1 32.2-42.1h110l-86.6 112.4 92.2 116.3h-110.9l-36.3-45.4-35 45.4h-110.1l89.4-115.7-89.4-113zm-138.3.4v227.8h-228V24.9zM662.1 115h2.6q16.5 0 23.4-4.9 6.9-5.1 6.9-17.4 0-22.2-26.7-22.2h-6.2zm-560.9.6h2.8q27.3 0 27.3-21.4 0-9-5.5-15.8-5.6-6.9-18.5-6.9h-6.1zm270.9 39 42.6 11.1 11.1-42.6-42.6-11.1zm771.3 6.2h44.1v-43.9h-44.1zm-481.3 42h3.2q17.4 0 24.7-5.3 7.5-5.4 7.5-18.4 0-25.8-28.3-25.8h-7.1z"/></svg>